<svg width="405" height="362" viewBox="0 0 405 362" fill="none" xmlns="http://www.w3.org/2000/svg">
<path d="M252.643 311L249.261 308.031V308.031L252.643 311ZM385.65 2.45322C384.52 0.239895 381.809 -0.637977 379.596 0.492455L343.528 18.9137C341.314 20.0441 340.436 22.7547 341.567 24.968C342.697 27.1813 345.408 28.0592 347.621 26.9288L379.682 10.5544L396.056 42.6149C397.187 44.8283 399.897 45.7061 402.111 44.5757C404.324 43.4453 405.202 40.7347 404.071 38.5213L385.65 2.45322ZM0.142578 357C-0.00234715 361.498 -0.000983481 361.498 0.00116435 361.498C0.00292791 361.498 0.00586174 361.498 0.00938427 361.498C0.0164303 361.498 0.0266045 361.499 0.039885 361.499C0.0664462 361.5 0.105433 361.501 0.156671 361.503C0.259147 361.506 0.410629 361.51 0.609719 361.516C1.0079 361.527 1.59652 361.542 2.36441 361.561C3.90017 361.597 6.15314 361.643 9.03383 361.682C14.7948 361.762 23.0685 361.816 33.1385 361.716C53.2712 361.515 80.6187 360.698 109.439 358.226C138.232 355.756 168.635 351.623 194.826 344.75C220.797 337.935 243.517 328.21 256.024 313.969L252.643 311L249.261 308.031C238.65 320.113 218.249 329.299 192.542 336.045C167.054 342.733 137.222 346.81 108.67 349.259C80.144 351.706 53.0358 352.517 33.049 352.716C23.0593 352.815 14.8574 352.762 9.15776 352.683C6.30811 352.644 4.08447 352.599 2.5762 352.563C1.82208 352.545 1.24685 352.53 0.861659 352.519C0.669068 352.514 0.523995 352.51 0.427835 352.507C0.379756 352.505 0.343905 352.504 0.320458 352.503C0.308735 352.503 0.300112 352.503 0.294612 352.503C0.291862 352.502 0.290086 352.502 0.288708 352.502C0.287713 352.502 0.287503 352.502 0.142578 357ZM252.643 311L256.024 313.969C268.291 300.002 282.478 273.567 296.765 242.353C311.128 210.971 325.822 174.227 339.019 139.222C352.221 104.207 363.945 70.8783 372.368 46.3067C376.58 34.0195 379.967 23.9189 382.302 16.8883C383.47 13.3729 384.375 10.6248 384.988 8.75437C385.294 7.81917 385.528 7.1034 385.685 6.62081C385.764 6.37951 385.823 6.19654 385.863 6.07356C385.883 6.0121 385.898 5.96561 385.908 5.93438C385.913 5.91872 385.917 5.90691 385.92 5.89892C385.921 5.89494 385.922 5.89183 385.923 5.88984C385.923 5.88768 385.924 5.88649 381.643 4.50001C377.362 3.11354 377.361 3.11429 377.361 3.11597C377.36 3.11783 377.359 3.1205 377.358 3.12419C377.356 3.1316 377.352 3.1428 377.347 3.15784C377.337 3.1879 377.323 3.23313 377.303 3.29341C377.264 3.41394 377.205 3.59445 377.128 3.83323C376.972 4.31079 376.74 5.02142 376.435 5.95131C375.826 7.81113 374.925 10.548 373.761 14.0514C371.434 21.0586 368.056 31.1317 363.854 43.3883C355.45 67.9041 343.758 101.143 330.598 136.047C317.434 170.963 302.822 207.492 288.581 238.607C274.263 269.89 260.549 295.178 249.261 308.031L252.643 311Z" fill="#A70505"/>
</svg>
